<svg
	xmlns="http://www.w3.org/2000/svg"
	viewBox="0 0 64 64"
	role="img"
	aria-label="relayemail"
>
	<defs>
		<linearGradient id="bg" x1="10" y1="10" x2="54" y2="56" gradientUnits="userSpaceOnUse">
			<stop offset="0" stop-color="#0f172a" />
			<stop offset="1" stop-color="#0b1020" />
		</linearGradient>
		<linearGradient id="acc" x1="18" y1="18" x2="50" y2="46" gradientUnits="userSpaceOnUse">
			<stop offset="0" stop-color="#93c5fd" />
			<stop offset="1" stop-color="#60a5fa" />
		</linearGradient>
	</defs>

	<circle cx="32" cy="32" r="28" fill="url(#bg)" />

	<!-- Envelope -->
	<path
		d="M18.5 25.8c0-2.1 1.7-3.8 3.8-3.8h19.4c2.1 0 3.8 1.7 3.8 3.8v12.6c0 2.1-1.7 3.8-3.8 3.8H22.3c-2.1 0-3.8-1.7-3.8-3.8V25.8Z"
		fill="none"
		stroke="#ffffff"
		stroke-width="2.6"
		stroke-linejoin="round"
		opacity="0.98"
	/>
	<path
		d="M21.1 26.1 32 34.1 42.9 26.1"
		fill="none"
		stroke="#ffffff"
		stroke-width="2.6"
		stroke-linecap="round"
		stroke-linejoin="round"
		opacity="0.98"
	/>

	<!-- Relay arrow (accent) -->
	<path
		d="M25 44.5c4.4 3.1 11.1 3.1 15.5 0"
		fill="none"
		stroke="url(#acc)"
		stroke-width="3.2"
		stroke-linecap="round"
	/>
	<path
		d="M41.2 44.2 39.2 42.6M41.2 44.2 39.1 45.7"
		fill="none"
		stroke="url(#acc)"
		stroke-width="3.2"
		stroke-linecap="round"
		stroke-linejoin="round"
	/>
	<circle cx="47.7" cy="32.3" r="2.35" fill="url(#acc)" />
</svg>

